# xmcd
#
# Track frame offsets: 
#        150
#        13345
#        24050
#        37285
#        49082
#        68311
#        87930
#        104346
#        119138
#        133875
#        148729
#        162667
#
# Disc length: 2322 seconds
#
# Revision: 0
# Processed by: cddbd v1.5.2PL0 Copyright (c) Steve Scherf et al.
# Submitted via: ExactAudioCopyFreeDBPlugin 1.0
#
DISCID=ad09100c
DTITLE=鄭少秋 - 流氓皇帝．又見飛刀
DYEAR=2004
DGENRE=Pop
TTITLE0=做愛人自由
TTITLE1=飲勝
TTITLE2=愛在心內暖
TTITLE3=男兒志在四方
TTITLE4=光輝的燈塔
TTITLE5=不想再改變
TTITLE6=又見飛刀
TTITLE7=何必相識
TTITLE8=寫不出的歌
TTITLE9=高高山
TTITLE10=沙灘邊
TTITLE11=綿綿恨
EXTD=
EXTT0=
EXTT1=
EXTT2=
EXTT3=
EXTT4=
EXTT5=
EXTT6=
EXTT7=
EXTT8=
EXTT9=
EXTT10=
EXTT11=
PLAYORDER=
